<svg version="1.1" id="Layer_1" xmlns="http://www.w3.org/2000/svg" xmlns:xlink="http://www.w3.org/1999/xlink" x="0px" y="0px"
	 width="100%" viewBox="0 0 691 361" enable-background="new 0 0 691 361" xml:space="preserve">
<path fill="#000000" opacity="1.000000" stroke="none" 
	d="
M405.000000,362.000000 
	C270.031952,362.000000 135.563873,362.000000 1.047909,362.000000 
	C1.047909,241.727203 1.047909,121.454369 1.047909,1.090771 
	C231.218094,1.090771 461.436218,1.090771 691.827148,1.090771 
	C691.827148,121.333138 691.827148,241.666550 691.827148,362.000000 
	C596.454285,362.000000 500.977142,362.000000 405.000000,362.000000 
M187.890549,86.877266 
	C187.890549,86.877266 187.879288,86.928162 187.226929,86.979439 
	C186.139450,87.593803 185.051956,88.208168 183.870056,88.836273 
	C183.870056,88.836273 183.874390,88.931580 183.387161,89.047180 
	C183.076416,89.238426 182.916290,89.516380 182.468887,90.114548 
	C182.186508,90.318596 182.009857,90.591171 181.258728,91.006577 
	C179.830811,92.306107 178.402893,93.605644 176.915009,94.895966 
	C176.915009,94.895966 176.879623,94.945251 176.157288,94.962860 
	C173.405212,98.944077 170.653122,102.925301 167.267288,107.278732 
	C166.118118,111.391121 163.530350,113.488098 159.138962,113.509239 
	C157.777008,113.515800 156.419052,114.352974 154.764297,114.215630 
	C148.315109,108.008598 144.076889,108.205177 139.248962,114.985168 
	C136.451385,117.235497 133.653809,119.485825 130.204865,122.002197 
	C126.976440,125.339455 123.136902,129.102097 126.709839,133.768066 
	C132.888260,141.836578 139.592087,149.559174 146.704086,156.810364 
	C148.183762,158.319000 153.023209,158.229126 155.213531,156.966476 
	C158.976166,154.797440 161.872284,151.125290 165.851593,148.028030 
	C170.845413,145.621017 173.393051,141.114059 172.090714,136.290771 
	C172.451645,135.394760 172.812592,134.498764 173.173523,133.602768 
	C172.741989,133.752670 172.310455,133.902588 171.878922,134.052505 
	C171.144836,132.360184 169.620041,130.545883 169.857986,129.003510 
	C170.235168,126.558388 171.791199,124.295128 172.983093,121.289581 
	C173.345505,120.247658 173.707916,119.205734 174.782089,118.103134 
	C178.434189,114.257103 182.086288,110.411072 185.810425,106.539017 
	C185.810425,106.539017 185.797989,106.463425 185.982498,106.342369 
	C185.982498,106.342369 186.009521,106.123352 186.721237,106.000290 
	C188.820557,104.946022 190.919861,103.891762 193.792191,102.960571 
	C195.825211,103.685600 197.858231,104.410622 199.961700,105.923531 
	C198.882690,108.294655 198.063141,110.836868 196.646500,112.985367 
	C195.406967,114.865234 193.496185,116.302513 191.323135,118.221832 
	C190.231689,119.193954 189.140228,120.166069 187.383591,121.243797 
	C185.549805,123.475380 183.716019,125.706955 181.323502,128.313324 
	C178.927567,132.262970 175.184601,135.671890 175.957794,141.580811 
	C175.635345,142.361115 175.312897,143.141434 174.377960,144.316635 
	C172.537766,149.519104 170.697571,154.721573 168.227905,160.281036 
	C166.752808,163.155365 165.277695,166.029709 163.414215,169.477692 
	C161.894119,172.608032 160.374039,175.738373 158.285538,179.251266 
	C155.887939,183.273880 152.139572,180.680069 148.234024,181.029617 
	C143.248795,179.290634 138.025269,178.017197 133.369720,175.634155 
	C130.673355,174.253952 129.029785,174.226791 126.123001,176.036469 
	C116.696503,175.911026 115.398651,176.889740 112.330353,186.383301 
	C110.888351,190.688507 109.135284,194.925446 108.167641,199.334763 
	C107.813644,200.947815 109.323524,202.969910 109.983124,204.805405 
	C112.359558,203.781128 115.487984,203.373627 116.945992,201.596054 
	C119.486626,198.498566 120.997726,194.556656 123.238693,190.412842 
	C123.467247,189.619293 123.695808,188.825745 123.979645,187.539124 
	C123.979645,187.539124 124.047104,187.047562 124.669754,187.237579 
	C124.804832,188.423477 125.217232,189.656219 125.026169,190.787003 
	C124.266350,195.284210 127.956703,197.351944 130.616821,198.230667 
	C135.075470,199.703491 140.078537,199.528168 145.334106,200.531921 
	C146.213394,200.677628 147.092682,200.823334 148.761292,201.032593 
	C150.844910,201.324783 152.928543,201.616974 155.777405,201.950195 
	C157.519485,201.619629 159.261566,201.289047 161.732956,200.959747 
	C167.339844,200.367447 172.709824,199.138870 177.720703,194.934738 
	C179.514984,191.995193 181.309280,189.055664 183.090332,186.081726 
	C183.090332,186.081726 183.056427,186.081924 183.525146,185.893280 
	C183.662766,185.600800 183.800385,185.308319 184.237198,184.402023 
	C185.755432,181.924500 187.273666,179.446960 189.163361,176.383438 
	C192.153351,171.614258 195.143341,166.845062 198.585220,161.976288 
	C198.585220,161.976288 199.029663,161.847504 199.594101,161.817886 
	C200.307312,162.844025 201.020538,163.870163 202.435760,165.906311 
	C211.102722,167.458496 220.149078,171.010147 224.919968,181.860840 
	C226.599991,188.330353 228.799271,194.718658 229.826797,201.290192 
	C231.073837,209.265701 231.574097,210.638214 240.694046,209.411774 
	C241.102524,210.552292 241.540619,211.768890 241.974167,212.987106 
	C245.292862,222.312256 250.985184,223.520020 258.087555,216.390411 
	C258.668457,215.807266 259.142517,215.117661 259.685822,214.422791 
	C259.685822,214.422791 259.651428,214.375946 260.175018,214.108978 
	C261.481140,212.768494 262.787292,211.428024 264.724518,209.801056 
	C266.424866,208.334045 268.652954,207.155487 269.661469,205.310333 
	C270.494324,203.786530 270.616364,200.928284 269.686005,199.682587 
	C268.926025,198.664993 265.832489,198.450272 264.326508,199.121033 
	C260.953278,200.623367 257.924438,202.899002 254.166641,205.165817 
	C253.653244,204.654999 252.778076,204.202499 252.684814,203.623947 
	C252.055008,199.716995 251.590729,195.783371 251.029144,191.044250 
	C250.036896,188.016113 249.044632,184.987991 247.783493,181.307617 
	C246.185349,176.535873 244.587204,171.764114 242.919388,166.217987 
	C240.035400,159.092896 234.474609,154.560715 227.768372,150.361511 
	C227.216309,150.233261 226.664246,150.104996 225.907913,149.528824 
	C225.709473,149.199677 225.424576,149.084595 224.428925,148.868591 
	C221.653763,147.227768 218.878586,145.586945 216.244492,143.344040 
	C216.516434,142.589371 216.788376,141.834702 217.654297,140.773575 
	C222.082977,134.371323 228.011475,133.188492 235.647522,136.093323 
	C246.370056,146.245453 253.795609,146.305313 263.815033,136.999283 
	C266.231018,135.383560 268.647003,133.767838 271.691559,131.889816 
	C273.470551,129.939133 275.249573,127.988434 277.000000,126.000000 
	C277.000000,126.000000 277.030060,126.036865 277.644958,126.148521 
	C278.789246,126.035110 279.933502,125.921692 281.581482,125.868767 
	C281.747650,125.585640 281.913818,125.302513 282.041443,125.081673 
	C282.041443,125.081673 282.115540,125.081131 282.733063,124.735283 
	C286.648590,118.196419 290.321198,111.492371 294.599365,105.200050 
	C296.309143,102.685287 296.235718,100.373466 294.248077,99.459938 
	C292.850311,98.817513 289.491913,100.025421 288.458679,101.454948 
	C285.266174,105.871796 282.198425,110.562088 280.182495,115.587555 
	C278.596161,119.542183 276.386749,119.887512 272.166534,119.030685 
	C269.773193,119.072495 267.379822,119.114296 264.071564,119.011162 
	C260.161133,119.011162 256.250702,119.011162 250.957214,119.011162 
	C252.650726,121.962738 253.770737,123.914803 254.282776,125.949524 
	C253.828842,126.274094 253.374893,126.598671 252.460861,127.042206 
	C252.460861,127.042206 251.999557,127.156479 251.301086,126.998695 
	C248.696259,127.685280 246.655930,127.356277 245.712952,124.348068 
	C245.334091,123.139481 244.463318,122.085083 243.839066,120.470306 
	C243.661667,120.160881 243.395477,119.988617 243.015030,119.968460 
	C243.015030,119.968460 243.037430,119.931572 242.965225,119.005486 
	C242.934387,116.176231 242.857330,113.346565 242.882553,110.517807 
	C242.931488,105.025826 243.037857,99.534348 243.798523,93.699860 
	C245.570694,93.134613 247.372055,92.645416 249.105774,91.979973 
	C250.485153,91.450531 251.781906,90.705742 253.801559,89.699409 
	C254.072525,87.538208 254.779938,85.326820 254.538208,83.224571 
	C253.541351,74.555222 245.204514,67.883385 247.632431,58.174854 
	C247.799210,57.507973 246.797684,56.486088 246.230377,55.708942 
	C243.190308,51.544422 239.115540,53.174026 234.961227,53.328964 
	C237.583282,57.900311 236.351166,60.624001 230.477448,63.079914 
	C230.306900,63.361946 230.136353,63.643974 229.932785,63.936794 
	C229.932785,63.936794 229.921524,63.969662 229.204803,64.020630 
	C220.440643,68.124329 218.743515,74.222466 223.793869,82.391907 
	C224.726608,83.900719 224.569901,86.083046 224.031067,87.990700 
	C219.676208,87.395691 215.321365,86.800674 210.497849,86.086380 
	C210.497849,86.086380 210.030792,86.211807 209.365967,86.076141 
	C208.915878,86.032356 208.465775,85.988564 207.592819,85.282127 
	C204.057343,84.908539 200.521866,84.534950 196.233200,84.023582 
	C194.145508,84.736053 192.057831,85.448517 189.373901,86.017448 
	C188.896820,86.303467 188.419724,86.589478 187.890549,86.877266 
M385.440704,207.176682 
	C385.375671,207.282608 385.232697,207.452576 385.258423,207.483917 
	C385.407562,207.665359 385.596466,207.814117 385.888275,208.856445 
	C385.901337,209.847855 385.917572,210.839218 385.926971,211.830658 
	C385.985321,217.977478 386.320862,218.249985 392.309479,217.342575 
	C395.868988,216.803223 399.439819,216.338623 403.547546,215.772614 
	C404.029572,215.556381 404.511597,215.340134 405.497223,215.566895 
	C406.905243,215.202835 408.313263,214.838760 409.704742,214.478973 
	C410.179260,208.232559 410.640045,202.167191 411.842896,196.038925 
	C413.522308,197.639832 415.709015,198.961151 416.777100,200.898987 
	C419.106445,205.125122 420.569000,209.839035 422.999847,213.994370 
	C424.027893,215.751648 426.875610,217.933914 428.424408,217.617020 
	C433.026184,216.675491 437.468872,214.763611 441.827087,212.889969 
	C444.932922,211.554703 446.223602,209.501938 444.092438,205.893738 
	C442.222534,202.727875 441.259827,199.026184 439.878662,195.515991 
	C445.745209,191.374100 448.321625,186.353943 448.036682,179.328049 
	C447.558655,167.541458 447.658295,155.713455 448.024323,143.918686 
	C448.191895,138.520584 445.980225,135.633743 441.027405,135.101593 
	C432.396362,134.174240 423.717834,133.684250 415.056732,133.044235 
	C410.447144,132.703613 405.807800,131.991104 401.226501,132.246628 
	C395.967834,132.539932 390.538055,127.504997 386.025330,132.217850 
	C386.025330,142.110260 386.013153,151.537125 386.028687,160.963959 
	C386.044556,170.610718 386.087616,180.257431 385.998291,190.851700 
	C385.925323,196.241516 385.852386,201.631317 385.440704,207.176682 
M468.079651,217.976974 
	C479.407532,217.930374 490.735443,217.883774 502.928894,217.965195 
	C510.808350,218.092957 510.808350,218.092957 510.565125,209.355011 
	C513.352417,209.355011 516.141907,209.355011 519.309509,209.900620 
	C523.742432,211.914719 528.097534,214.127991 532.625854,215.898087 
	C540.181458,218.851578 540.241882,218.740631 544.273865,212.175201 
	C544.689697,211.498154 544.713501,210.587753 545.097107,209.882355 
	C546.916687,206.536316 548.798035,203.223846 550.875244,199.509811 
	C554.128662,205.084747 556.998962,209.872955 559.733521,214.737457 
	C561.384949,217.675232 563.335510,218.706726 566.618103,217.036819 
	C569.693848,215.472153 572.916321,214.061111 576.227539,213.123657 
	C582.320129,211.398697 583.947327,207.348846 580.716309,201.939514 
	C576.021179,194.078949 571.439880,186.141296 567.147888,178.057159 
	C566.341370,176.537994 566.427246,173.789474 567.282471,172.275375 
	C570.824524,166.004501 574.705627,159.913971 578.686218,153.905624 
	C581.696716,149.361496 581.843262,143.218781 578.618042,141.315811 
	C573.985291,138.582352 569.483276,135.558197 564.622192,133.315460 
	C562.724121,132.439758 558.665283,132.447174 557.892090,133.598251 
	C554.722839,138.316742 552.440735,143.631134 549.504211,149.366714 
	C546.304504,144.269699 543.502319,139.858353 540.755005,135.413055 
	C538.496948,131.759430 535.731934,131.085281 532.246521,133.474289 
	C529.181580,135.575150 526.291199,137.975311 523.069092,139.791443 
	C518.773560,142.212585 517.940308,146.154877 519.330383,149.943573 
	C520.882324,154.173264 523.733948,157.953400 526.203674,161.811554 
	C528.860046,165.961243 531.791443,169.935120 534.436279,174.091675 
	C534.811462,174.681274 534.467590,175.980927 534.077332,176.762512 
	C532.090942,180.740417 529.926086,184.629013 527.927124,188.600876 
	C525.876221,192.675919 523.944763,196.811035 521.505127,201.132278 
	C521.396179,201.431656 521.287231,201.731033 521.062866,202.424026 
	C521.062866,202.424026 520.969177,202.823364 520.309326,203.156662 
	C517.844055,206.886856 514.647156,208.189896 509.985779,206.046570 
	C509.985779,204.348267 509.961670,202.557571 509.991394,200.767776 
	C510.035797,198.095139 508.959534,196.688507 505.466309,196.913513 
	C503.620667,196.692154 501.775024,196.470795 499.290039,195.928574 
	C494.869202,195.928314 490.448364,195.928070 485.499725,195.334045 
	C484.087860,195.096741 482.675995,194.859421 481.304138,194.628830 
	C481.304138,190.385101 481.304138,186.498383 481.304138,183.033707 
	C484.639740,183.033707 487.621429,183.039230 490.603149,183.032654 
	C498.836548,183.014496 498.836517,183.012497 498.973694,174.769943 
	C499.163086,163.389313 499.163116,163.389313 488.086823,163.039261 
	C480.770966,162.808044 479.957397,161.720688 481.728271,154.173462 
	C488.265137,154.173462 494.899719,153.821533 501.473450,154.302231 
	C505.577759,154.602371 508.296417,153.711243 508.566315,149.491547 
	C508.901886,144.244247 508.646820,138.959183 508.646820,132.598953 
	C502.919769,132.598953 497.402069,132.573502 491.884827,132.615936 
	C490.411133,132.627258 488.929810,133.019196 487.467651,132.941635 
	C478.077393,132.443604 468.693909,131.801102 459.299347,131.432068 
	C458.568451,131.403366 457.769714,133.101196 457.029602,134.934204 
	C457.087280,146.296829 457.144958,157.659470 457.005707,169.463821 
	C456.998444,169.966400 456.991180,170.468964 457.028015,171.913376 
	C456.846619,183.802094 456.552246,195.690903 456.559509,207.579498 
	C456.561432,210.737457 457.489685,213.894867 458.529053,217.685562 
	C461.408813,217.752884 464.288544,217.820206 468.079651,217.976974 
M375.836609,143.199936 
	C375.793335,141.826630 375.750092,140.453323 375.869843,138.319885 
	C375.050903,136.582901 378.926331,133.262192 373.432465,132.311874 
	C368.116821,132.219955 362.801086,132.134201 357.485596,132.034531 
	C351.214966,131.916977 351.059601,132.053055 351.046051,138.339630 
	C351.019653,150.569809 351.117371,162.801437 350.957947,175.029800 
	C350.793854,187.617310 350.296356,200.200455 350.128723,212.787949 
	C350.066956,217.425690 351.966675,218.655350 356.377808,217.768112 
	C360.227570,216.993774 364.127228,216.467850 368.768372,215.885696 
	C371.275360,215.291504 373.133789,214.516876 373.208221,211.178482 
	C373.580627,194.478226 374.217407,177.783859 374.874939,160.302521 
	C374.954559,159.514450 375.034180,158.726364 375.700531,157.369553 
	C375.702026,152.918335 375.703522,148.467133 375.836609,143.199936 
M339.917175,194.093887 
	C340.268707,182.317184 340.657288,170.541351 340.927399,158.762772 
	C340.963318,157.195831 340.397522,155.615082 340.003204,153.143311 
	C340.386139,147.929123 340.706726,142.709305 341.177399,137.503052 
	C341.427368,134.737991 340.560730,133.154556 337.587311,133.000916 
	C331.762909,132.699936 325.942749,132.317139 319.866364,131.538788 
	C319.635071,131.239639 319.335968,131.135818 318.353882,131.141876 
	C317.942230,131.174133 317.530548,131.206390 316.409821,131.665253 
	C316.219971,142.092331 316.030121,152.519409 314.972534,162.986649 
	C314.139496,162.995758 313.306488,163.013306 312.473450,163.012634 
	C306.361298,163.007675 305.868713,162.639679 305.947388,156.546982 
	C306.041504,149.259277 306.448853,141.975143 306.497009,134.687988 
	C306.502716,133.820480 305.225128,132.338776 304.341431,132.165283 
	C296.007812,130.529175 287.661865,130.210938 279.829376,132.454590 
	C279.829376,136.231796 279.829376,139.660645 279.162018,143.588287 
	C279.157013,152.037308 279.151978,160.486313 279.066498,169.765701 
	C279.389557,171.542160 280.021545,173.324860 279.985779,175.094086 
	C279.744843,187.008163 279.343506,198.918915 279.044586,210.832001 
	C278.996399,212.753418 279.199951,214.681137 279.317780,217.281891 
	C286.989929,216.746048 294.068359,216.405716 301.093079,215.598053 
	C302.169678,215.474274 303.718811,213.250107 303.822296,211.903076 
	C304.397522,204.416183 304.587921,196.899887 304.924500,189.394318 
	C305.001709,187.672195 305.135803,185.952621 305.266663,183.865982 
	C307.020844,184.331772 308.148529,184.974014 309.183655,184.849121 
	C314.887115,184.161011 315.386932,187.499252 315.031677,191.871613 
	C314.576996,197.467682 314.295441,203.079376 314.027252,208.688538 
	C313.823730,212.945679 314.721222,216.086868 320.126953,216.224579 
	C324.854889,216.345016 329.551788,217.631088 334.281342,217.773438 
	C335.787567,217.818771 338.559998,215.981461 338.693024,214.777939 
	C339.417847,208.219574 339.499573,201.590164 339.917175,194.093887 
z"/>
<path fill="#0C5297" opacity="1.000000" stroke="none" 
	d="
M386.118774,189.904175 
	C386.087616,180.257431 386.044556,170.610718 386.028687,160.963959 
	C386.013153,151.537125 386.025330,142.110260 386.025330,132.217850 
	C390.538055,127.504997 395.967834,132.539932 401.226501,132.246628 
	C405.807800,131.991104 410.447144,132.703613 415.056732,133.044235 
	C423.717834,133.684250 432.396362,134.174240 441.027405,135.101593 
	C445.980225,135.633743 448.191895,138.520584 448.024323,143.918686 
	C447.658295,155.713455 447.558655,167.541458 448.036682,179.328049 
	C448.321625,186.353943 445.745209,191.374100 439.878662,195.515991 
	C441.259827,199.026184 442.222534,202.727875 444.092438,205.893738 
	C446.223602,209.501938 444.932922,211.554703 441.827087,212.889969 
	C437.468872,214.763611 433.026184,216.675491 428.424408,217.617020 
	C426.875610,217.933914 424.027893,215.751648 422.999847,213.994370 
	C420.569000,209.839035 419.106445,205.125122 416.777100,200.898987 
	C415.709015,198.961151 413.522308,197.639832 411.121765,196.189468 
	C409.604553,200.299118 408.990326,204.307037 407.945312,208.199310 
	C407.301117,210.598724 405.999908,212.821732 404.993652,215.123901 
	C404.511597,215.340134 404.029572,215.556381 403.137878,215.515625 
	C399.375824,215.286697 395.976807,214.981827 392.685028,215.442886 
	C389.790283,215.848312 388.131805,215.371979 388.007996,212.245346 
	C387.761902,206.027786 387.620605,199.805298 387.293304,193.592377 
	C387.227661,192.345810 386.526764,191.132706 386.118774,189.904175 
M423.052460,157.668854 
	C422.940918,156.231232 422.829376,154.793610 422.712006,153.281372 
	C419.023376,152.871109 415.718536,152.503525 412.349609,152.128815 
	C412.349609,160.083740 412.349609,167.418839 412.349609,175.321793 
	C416.177002,174.729813 419.468475,174.220734 423.049530,173.666870 
	C423.049530,168.375229 423.049530,163.495575 423.052460,157.668854 
z"/>
<path fill="#0C5297" opacity="1.000000" stroke="none" 
	d="
M279.829376,143.089508 
	C279.829376,139.660645 279.829376,136.231796 279.829376,132.454590 
	C287.661865,130.210938 296.007812,130.529175 304.341431,132.165283 
	C305.225128,132.338776 306.502716,133.820480 306.497009,134.687988 
	C306.448853,141.975143 306.041504,149.259277 305.947388,156.546982 
	C305.868713,162.639679 306.361298,163.007675 312.473450,163.012634 
	C313.306488,163.013306 314.139496,162.995758 315.736084,162.870728 
	C316.790558,162.060760 317.336121,161.366013 317.334137,160.672836 
	C317.305939,150.861328 317.203430,141.050018 317.118896,131.238663 
	C317.530548,131.206390 317.942230,131.174133 318.829865,131.343292 
	C319.547363,131.743896 319.819031,131.885056 320.120819,131.968216 
	C325.942749,132.317139 331.762909,132.699936 337.587311,133.000916 
	C340.560730,133.154556 341.427368,134.737991 341.177399,137.503052 
	C340.706726,142.709305 340.386139,147.929123 339.807312,153.920227 
	C339.404327,165.377136 339.132660,176.056519 339.034729,186.737503 
	C339.009521,189.484146 339.531738,192.235825 339.802551,194.985184 
	C339.499573,201.590164 339.417847,208.219574 338.693024,214.777939 
	C338.559998,215.981461 335.787567,217.818771 334.281342,217.773438 
	C329.551788,217.631088 324.854889,216.345016 320.126953,216.224579 
	C314.721222,216.086868 313.823730,212.945679 314.027252,208.688538 
	C314.295441,203.079376 314.576996,197.467682 315.031677,191.871613 
	C315.386932,187.499252 314.887115,184.161011 309.183655,184.849121 
	C308.148529,184.974014 307.020844,184.331772 305.266663,183.865982 
	C305.135803,185.952621 305.001709,187.672195 304.924500,189.394318 
	C304.587921,196.899887 304.397522,204.416183 303.822296,211.903076 
	C303.718811,213.250107 302.169678,215.474274 301.093079,215.598053 
	C294.068359,216.405716 286.989929,216.746048 279.317780,217.281891 
	C279.199951,214.681137 278.996399,212.753418 279.044586,210.832001 
	C279.343506,198.918915 279.744843,187.008163 279.985779,175.094086 
	C280.021545,173.324860 279.389557,171.542160 279.389893,169.045914 
	C279.751984,159.913925 279.790680,151.501709 279.829376,143.089508 
z"/>
<path fill="#0D5397" opacity="1.000000" stroke="none" 
	d="
M521.961060,200.919861 
	C523.944763,196.811035 525.876221,192.675919 527.927124,188.600876 
	C529.926086,184.629013 532.090942,180.740417 534.077332,176.762512 
	C534.467590,175.980927 534.811462,174.681274 534.436279,174.091675 
	C531.791443,169.935120 528.860046,165.961243 526.203674,161.811554 
	C523.733948,157.953400 520.882324,154.173264 519.330383,149.943573 
	C517.940308,146.154877 518.773560,142.212585 523.069092,139.791443 
	C526.291199,137.975311 529.181580,135.575150 532.246521,133.474289 
	C535.731934,131.085281 538.496948,131.759430 540.755005,135.413055 
	C543.502319,139.858353 546.304504,144.269699 549.504211,149.366714 
	C552.440735,143.631134 554.722839,138.316742 557.892090,133.598251 
	C558.665283,132.447174 562.724121,132.439758 564.622192,133.315460 
	C569.483276,135.558197 573.985291,138.582352 578.618042,141.315811 
	C581.843262,143.218781 581.696716,149.361496 578.686218,153.905624 
	C574.705627,159.913971 570.824524,166.004501 567.282471,172.275375 
	C566.427246,173.789474 566.341370,176.537994 567.147888,178.057159 
	C571.439880,186.141296 576.021179,194.078949 580.716309,201.939514 
	C583.947327,207.348846 582.320129,211.398697 576.227539,213.123657 
	C572.916321,214.061111 569.693848,215.472153 566.618103,217.036819 
	C563.335510,218.706726 561.384949,217.675232 559.733521,214.737457 
	C556.998962,209.872955 554.128662,205.084747 550.875244,199.509811 
	C548.798035,203.223846 546.916687,206.536316 545.097107,209.882355 
	C544.713501,210.587753 544.689697,211.498154 544.273865,212.175201 
	C540.241882,218.740631 540.181458,218.851578 532.625854,215.898087 
	C528.097534,214.127991 523.742432,211.914719 519.191772,209.243927 
	C519.705750,206.665924 520.337463,204.744644 520.969177,202.823364 
	C520.969177,202.823364 521.062866,202.424026 521.280701,202.063446 
	C521.702576,201.471313 521.856750,201.210312 521.961060,200.919861 
z"/>
<path fill="#0B5297" opacity="1.000000" stroke="none" 
	d="
M499.929382,196.249420 
	C501.775024,196.470795 503.620667,196.692154 506.042877,197.322449 
	C506.978119,202.232285 507.435760,206.728165 507.663971,211.235672 
	C507.844391,214.798904 505.961884,216.124695 502.402405,216.086349 
	C487.633118,215.927277 472.861816,215.955673 458.065857,215.455078 
	C458.029388,202.232254 458.060394,189.469254 457.961731,176.707245 
	C457.946930,174.792938 457.325043,172.883331 456.983948,170.971542 
	C456.991180,170.468964 456.998444,169.966400 457.306793,168.879517 
	C457.742188,159.257904 457.952637,150.220657 457.959808,141.183243 
	C457.961731,138.787933 457.338562,136.392136 457.002472,133.996552 
	C457.769714,133.101196 458.568451,131.403366 459.299347,131.432068 
	C468.693909,131.801102 478.077393,132.443604 487.467651,132.941635 
	C488.929810,133.019196 490.411133,132.627258 491.884827,132.615936 
	C497.402069,132.573502 502.919769,132.598953 508.646820,132.598953 
	C508.646820,138.959183 508.901886,144.244247 508.566315,149.491547 
	C508.296417,153.711243 505.577759,154.602371 501.473450,154.302231 
	C494.899719,153.821533 488.265137,154.173462 481.728271,154.173462 
	C479.957397,161.720688 480.770966,162.808044 488.086823,163.039261 
	C499.163116,163.389313 499.163086,163.389313 498.973694,174.769943 
	C498.836517,183.012497 498.836548,183.014496 490.603149,183.032654 
	C487.621429,183.039230 484.639740,183.033707 481.304138,183.033707 
	C481.304138,186.498383 481.304138,190.385101 481.304138,194.628830 
	C482.675995,194.859421 484.087860,195.096741 485.831268,195.985138 
	C487.334442,199.835922 489.523438,200.471802 492.524689,199.217850 
	C494.978027,198.192810 497.460052,197.236298 499.929382,196.249420 
z"/>
<path fill="#0B5196" opacity="1.000000" stroke="none" 
	d="
M375.113800,157.938293 
	C375.034180,158.726364 374.954559,159.514450 374.489258,160.863495 
	C373.752014,162.476700 373.124146,163.520309 373.090881,164.582504 
	C372.693512,177.286133 372.212982,189.991486 372.138397,202.698654 
	C372.109375,207.642746 371.804535,212.209335 368.004852,215.832184 
	C364.127228,216.467850 360.227570,216.993774 356.377808,217.768112 
	C351.966675,218.655350 350.066956,217.425690 350.128723,212.787949 
	C350.296356,200.200455 350.793854,187.617310 350.957947,175.029800 
	C351.117371,162.801437 351.019653,150.569809 351.046051,138.339630 
	C351.059601,132.053055 351.214966,131.916977 357.485596,132.034531 
	C362.801086,132.134201 368.116821,132.219955 373.737122,133.004013 
	C374.596771,135.490784 375.151794,137.285400 375.706848,139.080017 
	C375.750092,140.453323 375.793335,141.826630 375.553406,143.907990 
	C375.218079,149.056808 375.165924,153.497543 375.113800,157.938293 
z"/>
<path fill="#295C89" opacity="1.000000" stroke="none" 
	d="
M248.052368,181.959854 
	C249.044632,184.987991 250.036896,188.016113 251.035065,191.895844 
	C250.730423,195.879059 250.419891,199.010681 250.086777,202.369812 
	C248.565201,201.956314 247.898895,201.984940 247.668091,201.681900 
	C241.754547,193.917221 230.724701,191.598206 226.591843,181.914993 
	C226.403030,181.472580 225.463913,181.350433 224.874237,181.079132 
	C220.149078,171.010147 211.102722,167.458496 202.435760,165.906311 
	C201.020538,163.870163 200.307312,162.844025 199.428040,161.522430 
	C202.547226,159.008133 202.518814,156.624878 199.616791,154.097610 
	C195.533325,150.541443 191.397186,147.042816 187.404495,143.387497 
	C186.391815,142.460388 185.517395,141.124741 185.143127,139.815659 
	C184.515289,137.619568 184.339890,135.294113 184.337296,132.949707 
	C187.840652,131.717178 189.527603,132.336838 190.181534,136.092697 
	C190.505600,137.954010 192.348267,139.941483 194.034561,141.098297 
	C198.277924,144.009308 203.392929,145.998047 202.837036,153.704056 
	C205.183014,151.112457 206.593750,149.554031 208.270248,147.884644 
	C212.979568,147.852402 208.770020,150.785263 209.848114,152.004379 
	C209.781967,152.056549 209.809708,152.295181 209.809708,152.295181 
	C209.809708,152.295181 210.042938,152.077332 210.276291,152.050201 
	C210.509644,152.023071 210.975479,151.961823 210.988495,151.978424 
	C211.001526,151.995010 211.033875,152.022095 211.065277,152.378937 
	C215.089630,157.288528 220.905472,159.473907 224.007706,165.706772 
	C226.695007,171.106003 233.125336,174.642227 238.151932,179.230759 
	C238.885269,178.813950 240.335892,177.989487 241.699646,177.214386 
	C242.809387,180.665527 243.774933,183.668198 244.740479,186.670868 
	C245.214691,186.555435 245.688919,186.439987 246.163132,186.324539 
	C246.792877,184.869644 247.422607,183.414749 248.052368,181.959854 
z"/>
<path fill="#2B6597" opacity="1.000000" stroke="none" 
	d="
M209.914276,151.952209 
	C208.770020,150.785263 212.979568,147.852402 208.019043,147.668243 
	C203.154129,143.361572 198.905869,139.050400 194.429062,134.991302 
	C190.280670,131.229935 185.752945,127.800652 188.048782,121.138191 
	C189.140228,120.166069 190.231689,119.193954 191.666306,118.097839 
	C192.009476,117.973846 192.114014,118.056381 192.079590,118.415512 
	C191.894302,120.223160 191.743454,121.671677 191.592590,123.120201 
	C193.833237,123.974281 195.075775,125.314148 196.143356,126.781326 
	C197.198944,128.232056 197.821350,130.079285 199.081116,131.285309 
	C203.278748,135.303864 207.677216,139.112625 212.000610,143.314636 
	C212.972763,148.839355 214.753601,143.619064 216.103409,143.946121 
	C218.878586,145.586945 221.653763,147.227768 224.898560,149.182098 
	C225.602829,149.676651 225.850830,149.837036 226.112183,149.976746 
	C226.664246,150.104996 227.216309,150.233261 227.833832,150.978363 
	C227.985733,153.125366 227.458481,155.410126 228.259491,156.061569 
	C232.998352,159.915436 238.045578,163.390137 242.989059,166.992371 
	C244.587204,171.764114 246.185349,176.535873 247.917923,181.633728 
	C247.422607,183.414749 246.792877,184.869644 246.163132,186.324539 
	C245.688919,186.439987 245.214691,186.555435 244.740479,186.670868 
	C243.774933,183.668198 242.809387,180.665527 241.699646,177.214386 
	C240.335892,177.989487 238.885269,178.813950 238.151932,179.230759 
	C233.125336,174.642227 226.695007,171.106003 224.007706,165.706772 
	C220.905472,159.473907 215.089630,157.288528 211.128448,152.336380 
	C211.160248,151.936981 211.163040,151.746643 211.163040,151.746643 
	C211.163040,151.746643 210.975479,151.961823 210.975479,151.961823 
	C210.975479,151.961823 210.509644,152.023071 210.246613,152.016357 
	C209.983582,152.009659 209.914276,151.952209 209.914276,151.952209 
M214.467621,150.497055 
	C214.467621,150.497055 214.511780,150.479889 214.467621,150.497055 
M209.498886,142.527298 
	C209.498886,142.527298 209.482803,142.485626 209.498886,142.527298 
z"/>
<path fill="#448AC7" opacity="1.000000" stroke="none" 
	d="
M243.120438,94.042664 
	C243.037857,99.534348 242.931488,105.025826 242.882553,110.517807 
	C242.857330,113.346565 242.934387,116.176231 242.636444,119.503693 
	C236.388870,122.336433 233.428284,127.546288 234.661209,132.884155 
	C232.842621,131.254791 231.349426,129.626251 229.936035,127.653046 
	C230.983307,125.553001 231.950821,123.797607 233.118530,121.744019 
	C235.987946,118.111618 234.947464,115.626961 231.664642,113.453255 
	C230.327713,114.740990 229.166061,115.859894 227.709106,117.110825 
	C226.589249,117.458725 225.764679,117.674599 225.094223,117.562759 
	C226.954803,113.418190 228.661270,109.601326 230.294693,105.947884 
	C225.977798,108.123337 221.997833,110.128998 218.015259,111.779282 
	C218.026932,110.950279 218.041199,110.476646 218.363190,109.865311 
	C220.117950,109.173370 221.564972,108.619148 223.112259,107.942734 
	C223.348969,107.497604 223.268723,107.230278 222.741974,106.774872 
	C216.481003,100.022980 210.449799,93.514778 204.498413,87.092697 
	C205.747177,86.685143 206.881424,86.314957 208.015686,85.944778 
	C208.465775,85.988564 208.915878,86.032356 209.802612,86.232010 
	C210.239258,86.387871 210.631592,86.422356 210.631592,86.422356 
	C210.631592,86.422356 210.966507,86.205666 210.966507,86.205658 
	C215.321365,86.800674 219.676208,87.395691 224.778534,88.001358 
	C227.794739,91.440063 230.063492,94.868111 232.548904,98.623543 
	C236.633667,92.988670 237.736526,98.028046 239.473679,101.014519 
	C240.837936,98.406349 241.979202,96.224510 243.120438,94.042664 
z"/>
<path fill="#1C4060" opacity="1.000000" stroke="none" 
	d="
M165.132141,148.084106 
	C161.872284,151.125290 158.976166,154.797440 155.213531,156.966476 
	C153.023209,158.229126 148.183762,158.319000 146.704086,156.810364 
	C139.592087,149.559174 132.888260,141.836578 126.709839,133.768066 
	C123.136902,129.102097 126.976440,125.339455 130.538727,122.138344 
	C131.725464,123.191437 133.065781,123.978760 133.349869,125.046982 
	C134.870377,130.764389 141.390610,129.094803 144.369797,132.636047 
	C144.623978,132.938202 146.148651,132.171539 147.387344,132.027588 
	C148.121658,132.225342 148.551773,132.296890 148.981781,132.722443 
	C150.660767,139.922485 152.094208,146.924103 159.686096,149.755768 
	C161.475754,149.206436 163.303940,148.645279 165.132141,148.084106 
M145.642044,137.171478 
	C145.742020,136.935928 145.841995,136.700378 145.941956,136.464813 
	C145.780563,136.626816 145.619171,136.788818 145.642044,137.171478 
z"/>
<path fill="#27547C" opacity="1.000000" stroke="none" 
	d="
M224.897095,181.469986 
	C225.463913,181.350433 226.403030,181.472580 226.591843,181.914993 
	C230.724701,191.598206 241.754547,193.917221 247.668091,201.681900 
	C247.898895,201.984940 248.565201,201.956314 250.086777,202.369812 
	C250.419891,199.010681 250.730423,195.879059 251.056931,192.302917 
	C251.590729,195.783371 252.055008,199.716995 252.684814,203.623947 
	C252.778076,204.202499 253.653244,204.654999 254.667694,205.236633 
	C255.273956,209.047791 252.913391,213.997467 259.666199,214.477509 
	C259.142517,215.117661 258.668457,215.807266 258.087555,216.390411 
	C250.985184,223.520020 245.292862,222.312256 241.974167,212.987106 
	C241.540619,211.768890 241.102524,210.552292 240.694046,209.411774 
	C231.574097,210.638214 231.073837,209.265701 229.826797,201.290192 
	C228.799271,194.718658 226.599991,188.330353 224.897095,181.469986 
z"/>
<path fill="#4DA3ED" opacity="1.000000" stroke="none" 
	d="
M230.990067,63.157074 
	C236.351166,60.624001 237.583282,57.900311 234.961227,53.328964 
	C239.115540,53.174026 243.190308,51.544422 246.230377,55.708942 
	C246.797684,56.486088 247.799210,57.507973 247.632431,58.174854 
	C245.204514,67.883385 253.541351,74.555222 254.538208,83.224571 
	C254.779938,85.326820 254.072525,87.538208 253.046082,89.865456 
	C251.190094,90.018112 250.089615,90.004730 248.728439,89.774185 
	C246.788742,88.736420 245.109741,87.915810 243.037277,86.902916 
	C244.468124,85.636040 245.369705,84.837776 245.741440,84.508636 
	C243.402847,82.436501 241.219742,80.685410 239.254196,78.717079 
	C236.393372,75.852180 233.611938,72.897789 230.960800,69.839287 
	C230.050552,68.789185 229.633102,67.311928 229.115723,65.775635 
	C229.467789,65.004196 229.694656,64.486931 229.921524,63.969662 
	C229.921524,63.969662 229.932785,63.936794 230.146057,63.841530 
	C230.599380,63.581760 230.809616,63.385365 230.990067,63.157074 
z"/>
<path fill="#23517A" opacity="1.000000" stroke="none" 
	d="
M139.950653,114.902733 
	C144.076889,108.205177 148.315109,108.008598 154.955688,114.847870 
	C155.900497,117.925095 157.066528,119.798004 160.104584,119.407547 
	C161.078308,121.461807 162.061371,123.171219 163.128174,124.996170 
	C163.211929,125.111725 163.576370,125.270050 163.576370,125.270050 
	C163.576370,125.270050 163.958740,125.114967 164.174164,125.049973 
	C164.389587,124.984985 164.835251,124.922607 165.226013,124.946297 
	C168.027344,123.964958 170.437912,122.959938 172.848480,121.954918 
	C171.791199,124.295128 170.235168,126.558388 169.857986,129.003510 
	C169.620041,130.545883 171.144836,132.360184 171.878922,134.052505 
	C172.310455,133.902588 172.741989,133.752670 173.173523,133.602768 
	C172.812592,134.498764 172.451645,135.394760 171.869461,136.882050 
	C170.444260,139.328873 169.240295,141.184448 168.036346,143.040009 
	C167.558105,142.750259 167.079880,142.460495 166.601639,142.170746 
	C166.675415,141.389618 166.877090,140.594803 166.795197,139.830353 
	C166.644516,138.423859 166.327042,137.035217 166.079086,135.639160 
	C165.020035,136.238190 164.001602,137.208267 162.890259,137.329971 
	C161.818680,137.447327 160.475510,136.917648 159.586899,136.235504 
	C158.983810,135.772522 159.223465,134.088699 158.631989,133.754288 
	C155.576492,132.026779 152.374466,130.558426 149.168671,128.541733 
	C149.113770,124.303505 149.113770,120.523224 149.113770,116.742943 
	C148.728256,116.706284 148.342728,116.669624 147.957214,116.632973 
	C147.623138,117.414955 147.289062,118.196945 146.586578,119.056007 
	C142.121994,120.696457 139.788879,119.647766 139.950653,114.902733 
z"/>
<path fill="#367AB5" opacity="1.000000" stroke="none" 
	d="
M218.055466,110.003014 
	C218.041199,110.476646 218.026932,110.950279 217.832306,112.078796 
	C215.485550,113.526817 213.319153,114.319962 210.858383,115.153732 
	C210.058838,115.488464 209.553680,115.782578 209.066025,116.100426 
	C209.083542,116.124168 209.044693,116.168854 208.665131,116.109070 
	C203.466415,115.054375 201.318710,112.315445 201.913025,107.225983 
	C202.230240,104.509499 201.861786,104.466476 199.891251,105.135643 
	C197.858231,104.410622 195.825211,103.685600 193.279633,102.591721 
	C188.840820,99.479156 184.914566,96.735428 181.199661,93.737473 
	C181.586990,92.632912 181.762970,91.782593 181.938950,90.932266 
	C182.009857,90.591171 182.186508,90.318596 182.881287,89.877228 
	C183.527786,89.437035 183.721359,89.200920 183.874390,88.931580 
	C183.874390,88.931580 183.870056,88.836273 184.277084,88.851349 
	C185.749176,88.220345 186.814224,87.574257 187.879288,86.928162 
	C187.879288,86.928162 187.890549,86.877266 188.190582,86.854538 
	C188.983780,86.608200 189.476959,86.384590 189.970139,86.160980 
	C192.057831,85.448517 194.145508,84.736053 196.479431,84.393158 
	C195.565247,85.591164 194.404861,86.419594 192.735245,87.611572 
	C194.878708,89.617134 196.762192,91.357224 198.620911,93.123383 
	C202.019852,96.353050 204.927414,100.569855 208.940735,102.538742 
	C212.339142,104.205963 214.143616,105.506958 213.383041,109.589386 
	C215.161118,109.746788 216.608292,109.874901 218.055466,110.003014 
z"/>
<path fill="#3E82BD" opacity="1.000000" stroke="none" 
	d="
M234.986618,132.884979 
	C233.428284,127.546288 236.388870,122.336433 242.672546,119.966736 
	C243.037430,119.931572 243.015030,119.968460 243.137970,120.143463 
	C243.411545,120.562386 243.596725,120.776398 243.816437,120.960510 
	C244.463318,122.085083 245.334091,123.139481 245.712952,124.348068 
	C246.655930,127.356277 248.696259,127.685280 251.662354,127.455734 
	C253.659561,129.620087 256.042633,131.062485 256.763062,133.094406 
	C257.957336,136.462708 260.034332,137.231674 263.073395,137.060715 
	C253.795609,146.305313 246.370056,146.245453 235.336121,135.576920 
	C235.012009,134.335342 234.999313,133.610153 234.986618,132.884979 
z"/>
<path fill="#0B1C2D" opacity="1.000000" stroke="none" 
	d="
M155.012161,201.909180 
	C152.928543,201.616974 150.844910,201.324783 148.109192,200.789795 
	C146.588898,200.380127 145.720703,200.213272 144.852509,200.046417 
	C140.078537,199.528168 135.075470,199.703491 130.616821,198.230667 
	C127.956703,197.351944 124.266350,195.284210 125.026169,190.787003 
	C125.217232,189.656219 124.804832,188.423477 124.047409,187.008545 
	C119.920250,186.519623 116.415443,186.259750 112.910637,185.999863 
	C115.398651,176.889740 116.696503,175.911026 126.573593,176.424164 
	C127.670288,178.083542 128.067413,179.590027 129.006287,180.585602 
	C132.741623,184.546417 137.087143,188.012573 140.353256,192.310471 
	C143.155014,195.997330 146.105881,198.449127 150.728775,199.167389 
	C152.261566,199.405518 153.590195,200.957748 155.012161,201.909180 
z"/>
<path fill="#3571A4" opacity="1.000000" stroke="none" 
	d="
M234.661209,132.884155 
	C234.999313,133.610153 235.012009,134.335342 235.024918,135.421265 
	C228.011475,133.188492 222.082977,134.371323 217.093414,140.899933 
	C216.355698,141.016663 216.178864,141.007019 215.982391,140.629272 
	C214.535736,137.904175 213.371887,135.321335 211.601776,133.258774 
	C210.074463,131.479080 207.836426,130.317978 205.949142,128.836807 
	C201.349915,125.227234 199.464539,118.137749 192.114014,118.056381 
	C192.114014,118.056381 192.009476,117.973846 191.945709,117.954575 
	C193.496185,116.302513 195.406967,114.865234 196.646500,112.985367 
	C198.063141,110.836868 198.882690,108.294655 199.926483,105.529587 
	C201.861786,104.466476 202.230240,104.509499 201.913025,107.225983 
	C201.318710,112.315445 203.466415,115.054375 208.516144,116.411514 
	C207.769348,118.523056 206.791977,120.272385 205.583099,122.026054 
	C204.984909,122.197380 204.618210,122.364365 204.251511,122.531357 
	C204.781616,122.679436 205.311707,122.827522 206.065430,123.278244 
	C208.867630,123.114120 211.446213,122.647354 214.095169,122.517609 
	C216.911041,126.184944 217.847916,131.912537 223.925903,130.891129 
	C226.006012,130.541565 227.885239,128.996536 229.856247,127.997696 
	C231.349426,129.626251 232.842621,131.254791 234.661209,132.884155 
z"/>
<path fill="#0D2337" opacity="1.000000" stroke="none" 
	d="
M155.394775,201.929688 
	C153.590195,200.957748 152.261566,199.405518 150.728775,199.167389 
	C146.105881,198.449127 143.155014,195.997330 140.353256,192.310471 
	C137.087143,188.012573 132.741623,184.546417 129.006287,180.585602 
	C128.067413,179.590027 127.670288,178.083542 127.023430,176.450287 
	C129.029785,174.226791 130.673355,174.253952 133.369720,175.634155 
	C138.025269,178.017197 143.248795,179.290634 148.501831,181.386505 
	C145.557159,185.062790 145.712646,187.298920 149.642731,188.552460 
	C153.119400,189.661392 156.467545,190.251144 155.536179,195.238953 
	C155.407852,195.926117 157.271866,196.954514 158.165588,197.871613 
	C159.140671,198.872253 160.059998,199.927216 161.003647,200.958466 
	C159.261566,201.289047 157.519485,201.619629 155.394775,201.929688 
z"/>
<path fill="#27547C" opacity="1.000000" stroke="none" 
	d="
M183.974121,133.023102 
	C184.339890,135.294113 184.515289,137.619568 185.143127,139.815659 
	C185.517395,141.124741 186.391815,142.460388 187.404495,143.387497 
	C191.397186,147.042816 195.533325,150.541443 199.616791,154.097610 
	C202.518814,156.624878 202.547226,159.008133 199.145813,161.537231 
	C199.029663,161.847504 198.585220,161.976288 198.004761,162.011719 
	C196.951263,162.033295 196.478241,162.019440 195.703888,162.038391 
	C193.262848,159.875000 191.048416,157.746048 188.998901,155.468674 
	C184.696579,150.688049 180.480942,145.829437 176.229721,141.002838 
	C175.184601,135.671890 178.927567,132.262970 181.790710,128.347946 
	C182.829987,129.929413 183.402054,131.476257 183.974121,133.023102 
z"/>
<path fill="#153651" opacity="1.000000" stroke="none" 
	d="
M158.853958,178.868729 
	C160.374039,175.738373 161.894119,172.608032 163.850616,169.442291 
	C167.357620,173.263000 169.946396,177.700729 173.661697,180.778671 
	C176.309479,182.972229 178.561295,186.907333 183.103577,186.116135 
	C181.309280,189.055664 179.514984,191.995193 177.128571,194.866409 
	C173.658951,194.798080 170.781464,194.798080 167.627777,194.798080 
	C170.280746,186.497696 162.153915,187.327484 160.032135,184.575714 
	C159.515686,182.074097 159.184830,180.471405 158.853958,178.868729 
z"/>
<path fill="#23517A" opacity="1.000000" stroke="none" 
	d="
M176.093750,141.291824 
	C180.480942,145.829437 184.696579,150.688049 188.998901,155.468674 
	C191.048416,157.746048 193.262848,159.875000 195.628891,162.381332 
	C193.618423,165.936417 192.633743,170.398621 189.164093,170.921127 
	C184.610733,166.676071 181.040009,162.700455 176.806580,159.642197 
	C174.257263,157.800568 173.176712,156.199738 173.712677,153.208313 
	C174.263321,150.135147 174.574478,147.019043 174.990448,143.921738 
	C175.312897,143.141434 175.635345,142.361115 176.093750,141.291824 
z"/>
<path fill="#102B43" opacity="1.000000" stroke="none" 
	d="
M158.569748,179.059998 
	C159.184830,180.471405 159.515686,182.074097 160.032135,184.575714 
	C162.153915,187.327484 170.280746,186.497696 167.627777,194.798080 
	C170.781464,194.798080 173.658951,194.798080 176.811493,195.020447 
	C172.709824,199.138870 167.339844,200.367447 161.368301,200.959106 
	C160.059998,199.927216 159.140671,198.872253 158.165588,197.871613 
	C157.271866,196.954514 155.407852,195.926117 155.536179,195.238953 
	C156.467545,190.251144 153.119400,189.661392 149.642731,188.552460 
	C145.712646,187.298920 145.557159,185.062790 148.892517,181.443604 
	C152.139572,180.680069 155.887939,183.273880 158.569748,179.059998 
M162.470810,198.499481 
	C162.470810,198.499481 162.514267,198.482162 162.470810,198.499481 
z"/>
<path fill="#3E82BD" opacity="1.000000" stroke="none" 
	d="
M218.363190,109.865311 
	C216.608292,109.874901 215.161118,109.746788 213.383041,109.589386 
	C214.143616,105.506958 212.339142,104.205963 208.940735,102.538742 
	C204.927414,100.569855 202.019852,96.353050 198.620911,93.123383 
	C196.762192,91.357224 194.878708,89.617134 192.735245,87.611572 
	C194.404861,86.419594 195.565247,85.591164 196.856018,84.462051 
	C200.521866,84.534950 204.057343,84.908539 207.804260,85.613449 
	C206.881424,86.314957 205.747177,86.685143 204.498413,87.092697 
	C210.449799,93.514778 216.481003,100.022980 222.752838,107.036301 
	C222.999664,107.715919 223.005829,107.890419 223.012009,108.064926 
	C221.564972,108.619148 220.117950,109.173370 218.363190,109.865311 
z"/>
<path fill="#1C4060" opacity="1.000000" stroke="none" 
	d="
M183.096954,186.098938 
	C178.561295,186.907333 176.309479,182.972229 173.661697,180.778671 
	C169.946396,177.700729 167.357620,173.263000 164.044800,169.155457 
	C165.277695,166.029709 166.752808,163.155365 168.779724,160.371857 
	C172.322021,167.834976 177.378647,172.447098 182.033096,171.752655 
	C183.036957,174.965576 184.490814,177.903183 188.791901,176.969437 
	C187.273666,179.446960 185.755432,181.924500 183.920227,184.868652 
	C183.387344,185.559525 183.205063,185.808395 183.056427,186.081924 
	C183.056427,186.081924 183.090332,186.081726 183.096954,186.098938 
z"/>
<path fill="#21496D" opacity="1.000000" stroke="none" 
	d="
M149.223557,128.999680 
	C152.374466,130.558426 155.576492,132.026779 158.631989,133.754288 
	C159.223465,134.088699 158.983810,135.772522 159.586899,136.235504 
	C160.475510,136.917648 161.818680,137.447327 162.890259,137.329971 
	C164.001602,137.208267 165.020035,136.238190 166.079086,135.639160 
	C166.327042,137.035217 166.644516,138.423859 166.795197,139.830353 
	C166.877090,140.594803 166.675415,141.389618 166.601639,142.170746 
	C167.079880,142.460495 167.558105,142.750259 168.036346,143.040009 
	C169.240295,141.184448 170.444260,139.328873 171.884644,137.205078 
	C173.393051,141.114059 170.845413,145.621017 165.491867,148.056076 
	C163.303940,148.645279 161.475754,149.206436 159.686096,149.755768 
	C152.094208,146.924103 150.660767,139.922485 149.022797,132.299377 
	C149.117111,130.681442 149.170334,129.840561 149.223557,128.999680 
z"/>
<path fill="#21496D" opacity="1.000000" stroke="none" 
	d="
M188.977631,176.676437 
	C184.490814,177.903183 183.036957,174.965576 182.033096,171.752655 
	C177.378647,172.447098 172.322021,167.834976 169.094452,160.193375 
	C170.697571,154.721573 172.537766,149.519104 174.684204,144.119186 
	C174.574478,147.019043 174.263321,150.135147 173.712677,153.208313 
	C173.176712,156.199738 174.257263,157.800568 176.806580,159.642197 
	C181.040009,162.700455 184.610733,166.676071 189.164093,170.921127 
	C192.633743,170.398621 193.618423,165.936417 195.930206,162.348541 
	C196.478241,162.019440 196.951263,162.033295 197.778809,162.061523 
	C195.143341,166.845062 192.153351,171.614258 188.977631,176.676437 
z"/>
<path fill="#4894D7" opacity="1.000000" stroke="none" 
	d="
M248.989120,89.991348 
	C250.089615,90.004730 251.190094,90.018112 252.702957,90.044022 
	C251.781906,90.705742 250.485153,91.450531 249.105774,91.979973 
	C247.372055,92.645416 245.570694,93.134613 243.459488,93.871262 
	C241.979202,96.224510 240.837936,98.406349 239.473679,101.014519 
	C237.736526,98.028046 236.633667,92.988670 232.548904,98.623543 
	C230.063492,94.868111 227.794739,91.440063 225.221008,87.983261 
	C224.569901,86.083046 224.726608,83.900719 223.793869,82.391907 
	C218.743515,74.222466 220.440643,68.124329 229.563171,63.995148 
	C229.694656,64.486931 229.467789,65.004196 228.792267,65.869705 
	C222.234619,73.553215 221.294556,73.957741 227.518646,80.362885 
	C230.471344,83.401497 233.002579,86.846786 235.901154,89.942673 
	C236.729431,90.827332 238.222794,91.693451 239.329132,91.599709 
	C242.571274,91.324966 245.772110,90.562653 248.989120,89.991348 
z"/>
<path fill="#081321" opacity="1.000000" stroke="none" 
	d="
M112.620499,186.191589 
	C116.415443,186.259750 119.920250,186.519623 123.736084,186.913544 
	C124.047104,187.047562 123.979645,187.539124 123.630951,187.803375 
	C120.861145,188.762772 120.423462,189.691650 122.940384,190.968704 
	C120.997726,194.556656 119.486626,198.498566 116.945992,201.596054 
	C115.487984,203.373627 112.359558,203.781128 109.983124,204.805405 
	C109.323524,202.969910 107.813644,200.947815 108.167641,199.334763 
	C109.135284,194.925446 110.888351,190.688507 112.620499,186.191589 
z"/>
<path fill="#4DA3ED" opacity="1.000000" stroke="none" 
	d="
M273.053589,119.186089 
	C276.386749,119.887512 278.596161,119.542183 280.182495,115.587555 
	C282.198425,110.562088 285.266174,105.871796 288.458679,101.454948 
	C289.491913,100.025421 292.850311,98.817513 294.248077,99.459938 
	C296.235718,100.373466 296.309143,102.685287 294.599365,105.200050 
	C290.321198,111.492371 286.648590,118.196419 282.285583,124.593307 
	C279.258972,122.018738 277.877075,123.216751 277.030060,126.036865 
	C277.030060,126.036865 277.000000,126.000000 276.741638,125.820457 
	C275.340057,123.489304 274.196838,121.337700 273.053589,119.186089 
z"/>
<path fill="#4894D7" opacity="1.000000" stroke="none" 
	d="
M272.610046,119.108383 
	C274.196838,121.337700 275.340057,123.489304 276.755951,125.839325 
	C275.249573,127.988434 273.470551,129.939133 271.023682,131.995117 
	C268.500793,131.781158 266.086121,132.086334 264.898804,131.022156 
	C261.704010,128.158737 259.033203,124.710739 255.605713,120.881866 
	C259.352600,120.192558 262.169525,119.674332 264.986481,119.156097 
	C267.379822,119.114296 269.773193,119.072495 272.610046,119.108383 
z"/>
<path fill="#2E679B" opacity="1.000000" stroke="none" 
	d="
M167.901047,106.906517 
	C170.653122,102.925301 173.405212,98.944077 176.526001,95.338150 
	C175.829773,99.492821 173.596039,103.699265 178.838760,106.008575 
	C180.833344,106.887154 183.421005,106.419258 185.738373,106.565048 
	C182.086288,110.411072 178.434189,114.257103 174.159241,117.894272 
	C170.047913,116.847931 167.669449,115.399620 168.868301,111.060585 
	C169.200882,109.856865 168.258499,108.300888 167.901047,106.906517 
M172.466568,115.493866 
	C172.466568,115.493866 172.513702,115.475243 172.466568,115.493866 
z"/>
<path fill="#21496D" opacity="1.000000" stroke="none" 
	d="
M139.599808,114.943954 
	C139.788879,119.647766 142.121994,120.696457 146.634338,119.519150 
	C147.061371,123.903946 147.072250,127.902672 147.083130,131.901398 
	C146.148651,132.171539 144.623978,132.938202 144.369797,132.636047 
	C141.390610,129.094803 134.870377,130.764389 133.349869,125.046982 
	C133.065781,123.978760 131.725464,123.191437 130.864410,122.005325 
	C133.653809,119.485825 136.451385,117.235497 139.599808,114.943954 
z"/>
<path fill="#2B5F8E" opacity="1.000000" stroke="none" 
	d="
M184.337280,132.949707 
	C183.402054,131.476257 182.829987,129.929413 182.070084,128.160553 
	C183.716019,125.706955 185.549805,123.475380 187.716187,121.190994 
	C185.752945,127.800652 190.280670,131.229935 194.429062,134.991302 
	C198.905869,139.050400 203.154129,143.361572 207.753265,147.779190 
	C206.593750,149.554031 205.183014,151.112457 202.837036,153.704056 
	C203.392929,145.998047 198.277924,144.009308 194.034561,141.098297 
	C192.348267,139.941483 190.505600,137.954010 190.181534,136.092697 
	C189.527603,132.336838 187.840652,131.717178 184.337280,132.949707 
z"/>
<path fill="#2B5F8E" opacity="1.000000" stroke="none" 
	d="
M259.676025,214.450134 
	C252.913391,213.997467 255.273956,209.047791 254.962051,205.083588 
	C257.924438,202.899002 260.953278,200.623367 264.326508,199.121033 
	C265.832489,198.450272 268.926025,198.664993 269.686005,199.682587 
	C270.616364,200.928284 270.494324,203.786530 269.661469,205.310333 
	C268.652954,207.155487 266.424866,208.334045 264.037964,209.938751 
	C262.118073,211.509613 260.884735,212.942780 259.651428,214.375946 
	C259.651428,214.375946 259.685822,214.422791 259.676025,214.450134 
z"/>
<path fill="#448AC7" opacity="1.000000" stroke="none" 
	d="
M264.529022,119.083633 
	C262.169525,119.674332 259.352600,120.192558 255.605713,120.881866 
	C259.033203,124.710739 261.704010,128.158737 264.898804,131.022156 
	C266.086121,132.086334 268.500793,131.781158 270.709412,132.126266 
	C268.647003,133.767838 266.231018,135.383560 263.444214,137.029999 
	C260.034332,137.231674 257.957336,136.462708 256.763062,133.094406 
	C256.042633,131.062485 253.659561,129.620087 252.011581,127.534630 
	C251.999557,127.156479 252.460861,127.042206 252.976318,126.932281 
	C253.958115,126.503860 254.424438,126.185364 254.890762,125.866867 
	C253.770737,123.914803 252.650726,121.962738 250.957214,119.011162 
	C256.250702,119.011162 260.161133,119.011162 264.529022,119.083633 
z"/>
<path fill="#23517A" opacity="1.000000" stroke="none" 
	d="
M458.091248,215.915237 
	C472.861816,215.955673 487.633118,215.927277 502.402405,216.086349 
	C505.961884,216.124695 507.844391,214.798904 507.663971,211.235672 
	C507.435760,206.728165 506.978119,202.232285 506.360168,197.470917 
	C508.959534,196.688507 510.035797,198.095139 509.991394,200.767776 
	C509.961670,202.557571 509.985779,204.348267 509.985779,206.046570 
	C514.647156,208.189896 517.844055,206.886856 520.639282,202.990021 
	C520.337463,204.744644 519.705750,206.665924 519.002686,208.971115 
	C516.141907,209.355011 513.352417,209.355011 510.565125,209.355011 
	C510.808350,218.092957 510.808350,218.092957 502.238983,217.552429 
	C492.444672,217.092529 483.339874,216.983459 474.236145,217.040649 
	C471.878510,217.055450 469.524170,217.591095 467.168304,217.887512 
	C464.288544,217.820206 461.408813,217.752884 458.277344,217.084015 
	C458.047546,216.293365 458.069397,216.104294 458.091248,215.915237 
z"/>
<path fill="#3571A4" opacity="1.000000" stroke="none" 
	d="
M185.774399,106.552032 
	C183.421005,106.419258 180.833344,106.887154 178.838760,106.008575 
	C173.596039,103.699265 175.829773,99.492821 176.887177,95.329346 
	C176.879623,94.945251 176.915009,94.895966 177.291901,94.908218 
	C178.775299,94.610886 179.881805,94.301292 180.988312,93.991707 
	C184.914566,96.735428 188.840820,99.479156 192.893127,102.530182 
	C190.919861,103.891762 188.820557,104.946022 186.266022,105.985886 
	C185.810822,105.971481 185.599792,106.156258 185.599792,106.156258 
	C185.599792,106.156258 185.797989,106.463425 185.797989,106.463425 
	C185.797989,106.463425 185.810425,106.539017 185.774399,106.552032 
z"/>
<path fill="#295C89" opacity="1.000000" stroke="none" 
	d="
M167.584167,107.092621 
	C168.258499,108.300888 169.200882,109.856865 168.868301,111.060585 
	C167.669449,115.399620 170.047913,116.847931 173.803375,117.924606 
	C173.707916,119.205734 173.345505,120.247658 172.915787,121.622253 
	C170.437912,122.959938 168.027344,123.964958 165.389282,124.692657 
	C165.494095,122.834885 165.826401,121.254448 166.158707,119.674011 
	C164.143768,119.470230 162.128830,119.266457 160.113892,119.062683 
	C157.066528,119.798004 155.900497,117.925095 155.103180,115.144997 
	C156.419052,114.352974 157.777008,113.515800 159.138962,113.509239 
	C163.530350,113.488098 166.118118,111.391121 167.584167,107.092621 
z"/>
<path fill="#23517A" opacity="1.000000" stroke="none" 
	d="
M368.386597,215.858948 
	C371.804535,212.209335 372.109375,207.642746 372.138397,202.698654 
	C372.212982,189.991486 372.693512,177.286133 373.090881,164.582504 
	C373.124146,163.520309 373.752014,162.476700 374.432434,161.255951 
	C374.217407,177.783859 373.580627,194.478226 373.208221,211.178482 
	C373.133789,214.516876 371.275360,215.291504 368.386597,215.858948 
z"/>
<path fill="#3571A4" opacity="1.000000" stroke="none" 
	d="
M242.954224,166.605179 
	C238.045578,163.390137 232.998352,159.915436 228.259491,156.061569 
	C227.458481,155.410126 227.985733,153.125366 227.974091,151.230789 
	C234.474609,154.560715 240.035400,159.092896 242.954224,166.605179 
z"/>
<path fill="#23517A" opacity="1.000000" stroke="none" 
	d="
M339.859863,194.539536 
	C339.531738,192.235825 339.009521,189.484146 339.034729,186.737503 
	C339.132660,176.056519 339.404327,165.377136 339.860901,154.368958 
	C340.397522,155.615082 340.963318,157.195831 340.927399,158.762772 
	C340.657288,170.541351 340.268707,182.317184 339.859863,194.539536 
z"/>
<path fill="#23517A" opacity="1.000000" stroke="none" 
	d="
M386.058533,190.377930 
	C386.526764,191.132706 387.227661,192.345810 387.293304,193.592377 
	C387.620605,199.805298 387.761902,206.027786 388.007996,212.245346 
	C388.131805,215.371979 389.790283,215.848312 392.685028,215.442886 
	C395.976807,214.981827 399.375824,215.286697 402.866882,215.549515 
	C399.439819,216.338623 395.868988,216.803223 392.309479,217.342575 
	C386.320862,218.249985 385.985321,217.977478 385.926971,211.830658 
	C385.917572,210.839218 385.901337,209.847855 385.844116,208.177887 
	C385.799927,207.499313 385.779419,207.021133 385.779419,207.021133 
	C385.852386,201.631317 385.925323,196.241516 386.058533,190.377930 
z"/>
<path fill="#3571A4" opacity="1.000000" stroke="none" 
	d="
M458.065857,215.455078 
	C458.069397,216.104294 458.047546,216.293365 458.009155,216.767487 
	C457.489685,213.894867 456.561432,210.737457 456.559509,207.579498 
	C456.552246,195.690903 456.846619,183.802094 457.005981,171.442459 
	C457.325043,172.883331 457.946930,174.792938 457.961731,176.707245 
	C458.060394,189.469254 458.029388,202.232254 458.065857,215.455078 
z"/>
<path fill="#23517A" opacity="1.000000" stroke="none" 
	d="
M405.245422,215.345398 
	C405.999908,212.821732 407.301117,210.598724 407.945312,208.199310 
	C408.990326,204.307037 409.604553,200.299118 410.750732,196.220917 
	C410.640045,202.167191 410.179260,208.232559 409.704742,214.478973 
	C408.313263,214.838760 406.905243,215.202835 405.245422,215.345398 
z"/>
<path fill="#0D5397" opacity="1.000000" stroke="none" 
	d="
M499.609711,196.088989 
	C497.460052,197.236298 494.978027,198.192810 492.524689,199.217850 
	C489.523438,200.471802 487.334442,199.835922 486.095154,196.282013 
	C490.448364,195.928070 494.869202,195.928314 499.609711,196.088989 
z"/>
<path fill="#FBFFFF" opacity="1.000000" stroke="none" 
	d="
M467.623962,217.932236 
	C469.524170,217.591095 471.878510,217.055450 474.236145,217.040649 
	C483.339874,216.983459 492.444672,217.092529 501.806213,217.488419 
	C490.735443,217.883774 479.407532,217.930374 467.623962,217.932236 
z"/>
<path fill="#3571A4" opacity="1.000000" stroke="none" 
	d="
M457.016052,134.465378 
	C457.338562,136.392136 457.961731,138.787933 457.959808,141.183243 
	C457.952637,150.220657 457.742188,159.257904 457.405273,168.658661 
	C457.144958,157.659470 457.087280,146.296829 457.016052,134.465378 
z"/>
<path fill="#23517A" opacity="1.000000" stroke="none" 
	d="
M316.764343,131.451965 
	C317.203430,141.050018 317.305939,150.861328 317.334137,160.672836 
	C317.336121,161.366013 316.790558,162.060760 316.169922,162.850647 
	C316.030121,152.519409 316.219971,142.092331 316.764343,131.451965 
z"/>
<path fill="#FBFFFF" opacity="1.000000" stroke="none" 
	d="
M279.495697,143.338898 
	C279.790680,151.501709 279.751984,159.913925 279.430145,168.630737 
	C279.151978,160.486313 279.157013,152.037308 279.495697,143.338898 
z"/>
<path fill="#23517A" opacity="1.000000" stroke="none" 
	d="
M375.407166,157.653931 
	C375.165924,153.497543 375.218079,149.056808 375.487610,144.315979 
	C375.703522,148.467133 375.702026,152.918335 375.407166,157.653931 
z"/>
<path fill="#4894D7" opacity="1.000000" stroke="none" 
	d="
M277.337524,126.092697 
	C277.877075,123.216751 279.258972,122.018738 281.976837,124.766235 
	C282.115540,125.081131 282.041443,125.081673 281.883759,125.171463 
	C281.474030,125.401016 281.257935,125.583359 281.077789,125.808273 
	C279.933502,125.921692 278.789246,126.035110 277.337524,126.092697 
z"/>
<path fill="#23517A" opacity="1.000000" stroke="none" 
	d="
M375.788330,138.699951 
	C375.151794,137.285400 374.596771,135.490784 374.041077,133.296692 
	C378.926331,133.262192 375.050903,136.582901 375.788330,138.699951 
z"/>
<path fill="#2B5F8E" opacity="1.000000" stroke="none" 
	d="
M216.002014,140.997360 
	C216.178864,141.007019 216.355698,141.016663 216.796417,141.053162 
	C216.788376,141.834702 216.516434,142.589371 216.173950,143.645081 
	C214.753601,143.619064 212.972763,148.839355 212.324768,143.259247 
	C213.765366,142.259796 214.883682,141.628571 216.002014,140.997360 
z"/>
<path fill="#27547C" opacity="1.000000" stroke="none" 
	d="
M259.913208,214.242462 
	C260.884735,212.942780 262.118073,211.509613 263.722412,210.081985 
	C262.787292,211.428024 261.481140,212.768494 259.913208,214.242462 
z"/>
<path fill="#2E679B" opacity="1.000000" stroke="none" 
	d="
M181.199661,93.737473 
	C179.881805,94.301292 178.775299,94.610886 177.321884,94.912827 
	C178.402893,93.605644 179.830811,92.306107 181.598846,90.969421 
	C181.762970,91.782593 181.586990,92.632912 181.199661,93.737473 
z"/>
<path fill="#0B1C2D" opacity="1.000000" stroke="none" 
	d="
M123.089539,190.690765 
	C120.423462,189.691650 120.861145,188.762772 123.603317,188.049911 
	C123.695808,188.825745 123.467247,189.619293 123.089539,190.690765 
z"/>
<path fill="#2E679B" opacity="1.000000" stroke="none" 
	d="
M187.553101,86.953804 
	C186.814224,87.574257 185.749176,88.220345 184.324280,88.844482 
	C185.051956,88.208168 186.139450,87.593803 187.553101,86.953804 
z"/>
<path fill="#0D2337" opacity="1.000000" stroke="none" 
	d="
M145.093307,200.289169 
	C145.720703,200.213272 146.588898,200.380127 147.714539,200.758011 
	C147.092682,200.823334 146.213394,200.677628 145.093307,200.289169 
z"/>
<path fill="#3E82BD" opacity="1.000000" stroke="none" 
	d="
M254.586761,125.908195 
	C254.424438,126.185364 253.958115,126.503860 253.206375,126.872803 
	C253.374893,126.598671 253.828842,126.274094 254.586761,125.908195 
z"/>
<path fill="#2E679B" opacity="1.000000" stroke="none" 
	d="
M189.672028,86.089211 
	C189.476959,86.384590 188.983780,86.608200 188.216629,86.853653 
	C188.419724,86.589478 188.896820,86.303467 189.672028,86.089211 
z"/>
<path fill="#23517A" opacity="1.000000" stroke="none" 
	d="
M521.733093,201.026077 
	C521.856750,201.210312 521.702576,201.471313 521.338379,201.866638 
	C521.287231,201.731033 521.396179,201.431656 521.733093,201.026077 
z"/>
<path fill="#0C5297" opacity="1.000000" stroke="none" 
	d="
M385.610046,207.098907 
	C385.779419,207.021133 385.799927,207.499313 385.785950,207.736633 
	C385.596466,207.814117 385.407562,207.665359 385.258423,207.483917 
	C385.232697,207.452576 385.375671,207.282608 385.610046,207.098907 
z"/>
<path fill="#4894D7" opacity="1.000000" stroke="none" 
	d="
M230.733765,63.118492 
	C230.809616,63.385365 230.599380,63.581760 230.162567,63.836136 
	C230.136353,63.643974 230.306900,63.361946 230.733765,63.118492 
z"/>
<path fill="#2E679B" opacity="1.000000" stroke="none" 
	d="
M185.890244,106.402893 
	C185.797989,106.463425 185.599792,106.156258 185.599792,106.156258 
	C185.599792,106.156258 185.810822,105.971481 185.910172,106.047417 
	C186.009521,106.123352 185.982498,106.342369 185.890244,106.402893 
z"/>
<path fill="#448AC7" opacity="1.000000" stroke="none" 
	d="
M243.827759,120.715408 
	C243.596725,120.776398 243.411545,120.562386 243.150726,120.135986 
	C243.395477,119.988617 243.661667,120.160881 243.827759,120.715408 
z"/>
<path fill="#153651" opacity="1.000000" stroke="none" 
	d="
M183.290787,185.987610 
	C183.205063,185.808395 183.387344,185.559525 183.770630,185.175568 
	C183.800385,185.308319 183.662766,185.600800 183.290787,185.987610 
z"/>
<path fill="#4DA3ED" opacity="1.000000" stroke="none" 
	d="
M281.329651,125.838516 
	C281.257935,125.583359 281.474030,125.401016 281.903015,125.140320 
	C281.913818,125.302513 281.747650,125.585640 281.329651,125.838516 
z"/>
<path fill="#23517A" opacity="1.000000" stroke="none" 
	d="
M319.993591,131.753510 
	C319.819031,131.885056 319.547363,131.743896 319.137451,131.386002 
	C319.335968,131.135818 319.635071,131.239639 319.993591,131.753510 
z"/>
<path fill="#2E679B" opacity="1.000000" stroke="none" 
	d="
M183.630768,88.989380 
	C183.721359,89.200920 183.527786,89.437035 183.100250,89.760468 
	C182.916290,89.516380 183.076416,89.238426 183.630768,88.989380 
z"/>
<path fill="#3571A4" opacity="1.000000" stroke="none" 
	d="
M226.010040,149.752777 
	C225.850830,149.837036 225.602829,149.676651 225.210693,149.339600 
	C225.424576,149.084595 225.709473,149.199677 226.010040,149.752777 
z"/>
<path fill="#3E82BD" opacity="1.000000" stroke="none" 
	d="
M210.732178,86.146027 
	C210.966507,86.205666 210.631592,86.422356 210.631592,86.422356 
	C210.631592,86.422356 210.239258,86.387871 210.135025,86.299835 
	C210.030792,86.211807 210.497849,86.086380 210.732178,86.146027 
z"/>
<path fill="#000000" opacity="1.000000" stroke="none" 
	d="
M423.050995,158.142395 
	C423.049530,163.495575 423.049530,168.375229 423.049530,173.666870 
	C419.468475,174.220734 416.177002,174.729813 412.349609,175.321793 
	C412.349609,167.418839 412.349609,160.083740 412.349609,152.128815 
	C415.718536,152.503525 419.023376,152.871109 422.712006,153.281372 
	C422.829376,154.793610 422.940918,156.231232 423.050995,158.142395 
z"/>
<path fill="#2B6597" opacity="1.000000" stroke="none" 
	d="
M210.013260,152.043488 
	C210.042938,152.077332 209.809708,152.295181 209.809708,152.295181 
	C209.809708,152.295181 209.781967,152.056549 209.848114,152.004379 
	C209.914276,151.952209 209.983582,152.009659 210.013260,152.043488 
z"/>
<path fill="#2E679B" opacity="1.000000" stroke="none" 
	d="
M215.982391,140.629272 
	C214.883682,141.628571 213.765366,142.259796 212.322876,142.946396 
	C207.677216,139.112625 203.278748,135.303864 199.081116,131.285309 
	C197.821350,130.079285 197.198944,128.232056 196.143356,126.781326 
	C195.075775,125.314148 193.833237,123.974281 191.592590,123.120201 
	C191.743454,121.671677 191.894302,120.223160 192.079590,118.415512 
	C199.464539,118.137749 201.349915,125.227234 205.949142,128.836807 
	C207.836426,130.317978 210.074463,131.479080 211.601776,133.258774 
	C213.371887,135.321335 214.535736,137.904175 215.982391,140.629272 
z"/>
<path fill="#295C89" opacity="1.000000" stroke="none" 
	d="
M210.988495,151.978424 
	C210.975479,151.961823 211.163040,151.746643 211.163040,151.746643 
	C211.163040,151.746643 211.160248,151.936981 211.097061,151.979538 
	C211.033875,152.022095 211.001526,151.995010 210.988495,151.978424 
z"/>
<path fill="#295C89" opacity="1.000000" stroke="none" 
	d="
M214.489700,150.488464 
	C214.511780,150.479889 214.467621,150.497055 214.489700,150.488464 
z"/>
<path fill="#2E679B" opacity="1.000000" stroke="none" 
	d="
M209.490845,142.506470 
	C209.482803,142.485626 209.498886,142.527298 209.490845,142.506470 
z"/>
<path fill="#000000" opacity="1.000000" stroke="none" 
	d="
M205.814590,122.021713 
	C206.791977,120.272385 207.769348,118.523056 208.895706,116.471291 
	C209.044693,116.168854 209.083542,116.124168 209.384094,116.091736 
	C210.174026,115.743912 210.663391,115.428513 211.152756,115.113113 
	C213.319153,114.319962 215.485550,113.526817 217.834900,112.434174 
	C221.997833,110.128998 225.977798,108.123337 230.294693,105.947884 
	C228.661270,109.601326 226.954803,113.418190 225.083893,117.591324 
	C224.919464,117.947586 224.978470,117.954117 224.674957,117.987503 
	C223.895782,118.331818 223.420105,118.642754 222.970490,118.973671 
	C222.996552,118.993652 222.973602,118.932121 222.728821,118.953598 
	C222.484039,118.975075 222.020950,119.139648 221.671082,119.220314 
	C218.889069,120.260841 216.456940,121.220711 214.024796,122.180573 
	C211.446213,122.647354 208.867630,123.114120 206.086121,123.039230 
	C205.883194,122.497566 205.814590,122.021713 205.814590,122.021713 
z"/>
<path fill="#367AB5" opacity="1.000000" stroke="none" 
	d="
M214.095169,122.517601 
	C216.456940,121.220711 218.889069,120.260841 221.793274,119.305695 
	C222.574905,119.373466 222.810989,119.247368 222.973602,118.932121 
	C222.973602,118.932121 222.996552,118.993652 223.256500,118.918289 
	C224.003784,118.546654 224.491119,118.250389 224.978470,117.954117 
	C224.978470,117.954117 224.919464,117.947586 224.929794,117.919029 
	C225.764679,117.674599 226.589249,117.458725 227.777283,117.455612 
	C229.733276,119.126328 231.325790,120.584267 232.918320,122.042206 
	C231.950821,123.797607 230.983307,125.553001 229.936035,127.653046 
	C227.885239,128.996536 226.006012,130.541565 223.925903,130.891129 
	C217.847916,131.912537 216.911041,126.184944 214.095169,122.517601 
z"/>
<path fill="#3E82BD" opacity="1.000000" stroke="none" 
	d="
M233.118530,121.744019 
	C231.325790,120.584267 229.733276,119.126328 228.072571,117.323586 
	C229.166061,115.859894 230.327713,114.740990 231.664642,113.453255 
	C234.947464,115.626961 235.987946,118.111618 233.118530,121.744019 
z"/>
<path fill="#367AB5" opacity="1.000000" stroke="none" 
	d="
M223.112259,107.942734 
	C223.005829,107.890419 222.999664,107.715919 222.982635,107.279991 
	C223.268723,107.230278 223.348969,107.497604 223.112259,107.942734 
z"/>
<path fill="#4894D7" opacity="1.000000" stroke="none" 
	d="
M147.387344,132.027588 
	C147.072250,127.902672 147.061371,123.903946 147.002731,119.442078 
	C147.289062,118.196945 147.623138,117.414955 147.957214,116.632973 
	C148.342728,116.669624 148.728256,116.706284 149.113770,116.742943 
	C149.113770,120.523224 149.113770,124.303505 149.168671,128.541733 
	C149.170334,129.840561 149.117111,130.681442 149.022888,131.945374 
	C148.551773,132.296890 148.121658,132.225342 147.387344,132.027588 
z"/>
<path fill="#21496D" opacity="1.000000" stroke="none" 
	d="
M145.549911,137.061157 
	C145.619171,136.788818 145.780563,136.626816 145.941956,136.464813 
	C145.841995,136.700378 145.742020,136.935928 145.549911,137.061157 
z"/>
<path fill="#469BE5" opacity="1.000000" stroke="none" 
	d="
M248.728439,89.774185 
	C245.772110,90.562653 242.571274,91.324966 239.329132,91.599709 
	C238.222794,91.693451 236.729431,90.827332 235.901154,89.942673 
	C233.002579,86.846786 230.471344,83.401497 227.518646,80.362885 
	C221.294556,73.957741 222.234619,73.553215 228.667053,66.123886 
	C229.633102,67.311928 230.050552,68.789185 230.960800,69.839287 
	C233.611938,72.897789 236.393372,75.852180 239.254196,78.717079 
	C241.219742,80.685410 243.402847,82.436501 245.741440,84.508636 
	C245.369705,84.837776 244.468124,85.636040 243.037277,86.902916 
	C245.109741,87.915810 246.788742,88.736420 248.728439,89.774185 
z"/>
<path fill="#000000" opacity="1.000000" stroke="none" 
	d="
M160.104584,119.407547 
	C162.128830,119.266457 164.143768,119.470230 166.158707,119.674011 
	C165.826401,121.254448 165.494095,122.834885 164.998520,124.668961 
	C164.835251,124.922607 164.389587,124.984985 163.946838,124.987022 
	C163.504074,124.989059 163.044418,124.880623 163.044418,124.880623 
	C162.061371,123.171219 161.078308,121.461807 160.104584,119.407547 
z"/>
<path fill="#295C89" opacity="1.000000" stroke="none" 
	d="
M163.128174,124.996170 
	C163.044418,124.880623 163.504074,124.989059 163.731415,125.052017 
	C163.958740,125.114967 163.576370,125.270050 163.576370,125.270050 
	C163.576370,125.270050 163.211929,125.111725 163.128174,124.996170 
z"/>
<path fill="#3571A4" opacity="1.000000" stroke="none" 
	d="
M210.858383,115.153732 
	C210.663391,115.428513 210.174026,115.743912 209.366577,116.067993 
	C209.553680,115.782578 210.058838,115.488464 210.858383,115.153732 
z"/>
<path fill="#2E679B" opacity="1.000000" stroke="none" 
	d="
M205.583099,122.026054 
	C205.814590,122.021713 205.883194,122.497566 205.862503,122.736588 
	C205.311707,122.827522 204.781616,122.679436 204.251511,122.531357 
	C204.618210,122.364365 204.984909,122.197380 205.583099,122.026054 
z"/>
<path fill="#0D2337" opacity="1.000000" stroke="none" 
	d="
M162.492538,198.490814 
	C162.514267,198.482162 162.470810,198.499481 162.492538,198.490814 
z"/>
<path fill="#295C89" opacity="1.000000" stroke="none" 
	d="
M172.490143,115.484558 
	C172.513702,115.475243 172.466568,115.493866 172.490143,115.484558 
z"/>
<path fill="#448AC7" opacity="1.000000" stroke="none" 
	d="
M224.674957,117.987503 
	C224.491119,118.250389 224.003784,118.546654 223.230438,118.898300 
	C223.420105,118.642754 223.895782,118.331818 224.674957,117.987503 
z"/>
<path fill="#448AC7" opacity="1.000000" stroke="none" 
	d="
M222.728821,118.953598 
	C222.810989,119.247368 222.574905,119.373466 222.143127,119.225029 
	C222.020950,119.139648 222.484039,118.975075 222.728821,118.953598 
z"/>
</svg>